<?xml version="1.0" encoding="utf-8"?>
<!-- Generator: Adobe Illustrator 19.1.0, SVG Export Plug-In . SVG Version: 6.00 Build 0)  -->
<svg version="1.1" id="Layer_1" xmlns="http://www.w3.org/2000/svg" xmlns:xlink="http://www.w3.org/1999/xlink" x="0px" y="0px"
	 viewBox="-234.475 0 1204.353 209.333" enable-background="new -234.475 0 1204.353 209.333" xml:space="preserve">
<g id="Old_D" display="none">
	<path display="inline" d="M127.626,50.192c2.797,0.005,5.406,0.535,7.822,1.589c2.418,1.05,4.541,2.498,6.375,4.336
		c1.833,1.839,3.271,3.967,4.316,6.388c1.045,2.419,1.564,5.03,1.559,7.827l-0.108,63.727c-0.004,2.797-0.533,5.404-1.585,7.822
		c-1.053,2.416-2.498,4.528-4.337,6.329c-1.841,1.803-3.969,3.231-6.389,4.274c-2.421,1.045-5.031,1.565-7.827,1.56l-17.72-0.03
		l-0.001,0.05l-21.442-0.035l-0.017,10.7l39.688,0.065c4.254,0.007,8.261-0.788,12.022-2.383s7.044-3.789,9.846-6.584
		c2.802-2.791,5.007-6.049,6.617-9.777c1.608-3.729,2.417-7.718,2.423-11.972l0.108-63.727c0.008-4.255-0.788-8.262-2.383-12.023
		c-1.596-3.76-3.791-7.044-6.583-9.847c-2.792-2.801-6.068-5.007-9.824-6.616c-3.756-1.609-7.761-2.418-12.014-2.424l-39.688-0.068
		l-0.019,10.824L127.626,50.192z"/>
	<rect x="88.271" y="39.374" display="inline" width="10.818" height="45.338"/>
	<rect x="71.011" y="95.53" display="inline" width="45.338" height="10.818"/>
	<rect x="88.271" y="117.166" display="inline" width="10.818" height="47.629"/>
</g>
<g id="Guides">
</g>
<g>
	<g>
		<g>
			<polygon id="stripe_63_" fill="#E54520" points="95.038,99.535 313.537,99.535 309.801,109.798 91.303,109.798 			"/>
		</g>
		<g>
			<polygon id="stripe_62_" fill="#E54520" points="115.649,42.907 334.148,42.907 330.689,52.409 112.191,52.409 			"/>
		</g>
		<g>
			<polygon id="stripe_61_" fill="#E54520" points="108.732,61.911 327.231,61.911 323.773,71.412 105.275,71.412 			"/>
		</g>
		<g>
			<polygon id="stripe_60_" fill="#E54520" points="101.817,80.912 320.315,80.912 316.857,90.414 98.358,90.414 			"/>
		</g>
		<g>
			<polygon id="stripe_59_" fill="#E54520" points="87.983,118.92 306.481,118.92 303.023,128.422 84.524,128.422 			"/>
		</g>
		<g>
			<polygon id="stripe_58_" fill="#E54520" points="81.067,137.921 299.565,137.921 296.106,147.425 77.608,147.425 			"/>
		</g>
		<g>
			<polygon id="stripe_57_" fill="#E54520" points="74.149,156.927 292.648,156.927 289.189,166.43 70.691,166.43 			"/>
		</g>
		<polygon fill="#22629A" points="115.649,42.907 217.381,42.907 193.001,109.891 91.269,109.891 		"/>
	</g>
</g>
<g>
	<g>
		<g>
			<polygon id="stripe_7_" fill="#E54520" points="39.425,99.531 -179.073,99.531 -175.338,109.793 43.161,109.793 			"/>
		</g>
		<g>
			<polygon id="stripe_6_" fill="#E54520" points="18.814,42.903 -199.684,42.903 -196.226,52.405 22.273,52.405 			"/>
		</g>
		<g>
			<polygon id="stripe_5_" fill="#E54520" points="25.731,61.907 -192.767,61.907 -189.309,71.407 29.189,71.407 			"/>
		</g>
		<g>
			<polygon id="stripe_4_" fill="#E54520" points="32.647,80.908 -185.851,80.908 -182.393,90.41 36.105,90.41 			"/>
		</g>
		<g>
			<polygon id="stripe_3_" fill="#E54520" points="46.481,118.916 -172.018,118.916 -168.559,128.418 49.939,128.418 			"/>
		</g>
		<g>
			<polygon id="stripe_2_" fill="#E54520" points="53.397,137.917 -165.102,137.917 -161.643,147.42 56.856,147.42 			"/>
		</g>
		<g>
			<polygon id="stripe_1_" fill="#E54520" points="60.314,156.923 -158.184,156.923 -154.725,166.426 63.773,166.426 			"/>
		</g>
		<polygon fill="#22629A" points="18.814,42.903 -82.918,42.903 -58.538,109.886 43.194,109.886 		"/>
	</g>
</g>
<g>
	<path d="M417.1,135.291c-1.074,2.5-2.549,4.688-4.424,6.562s-4.072,3.35-6.592,4.424c-2.52,1.075-5.205,1.611-8.057,1.611h-26.601
		V63.865h26.601c2.852,0,5.537,0.538,8.057,1.611c2.52,1.075,4.717,2.549,6.592,4.424s3.35,4.072,4.424,6.592
		s1.611,5.206,1.611,8.057v42.715C418.711,130.115,418.174,132.792,417.1,135.291z M411.152,84.548c0-1.875-0.352-3.623-1.055-5.244
		c-0.703-1.621-1.67-3.047-2.9-4.277s-2.656-2.197-4.277-2.9s-3.369-1.055-5.244-1.055h-18.691v69.609h18.691
		c1.875,0,3.623-0.352,5.244-1.055s3.047-1.66,4.277-2.871c1.23-1.21,2.197-2.627,2.9-4.248c0.703-1.62,1.055-3.369,1.055-5.244
		V84.548z"/>
	<path d="M468.223,128.318h-26.602l-5.508,19.57h-7.852l24.609-84.023h3.984l24.727,84.023h-7.793L468.223,128.318z
		 M443.672,121.111h22.559l-11.074-38.73l-0.234-3.105l-0.234,3.105L443.672,121.111z"/>
	<path d="M509.18,71.072v76.816h-7.559V71.072h-20.039v-7.207h47.637v7.207H509.18z"/>
	<path d="M569.18,128.318h-26.602l-5.508,19.57h-7.852l24.609-84.023h3.984l24.727,84.023h-7.793L569.18,128.318z M544.629,121.111
		h22.559l-11.074-38.73l-0.234-3.105l-0.234,3.105L544.629,121.111z"/>
	<path fill="#22629A" d="M645.059,147.888V90.291l-0.527,3.574l-19.512,54.023h-3.984l-19.688-54.023l-0.469-3.574v57.598h-7.559
		V63.865h3.926l25.488,68.906l0.234,3.105l0.234-3.105l25.43-68.906h3.984v84.023H645.059z"/>
	<path fill="#22629A" d="M671.777,147.888V63.865h7.559v84.023H671.777z"/>
	<path fill="#22629A" d="M738.047,147.888l-22.793-35.859h-10.371v35.859h-7.559V63.865h26.66c2.851,0,5.527,0.538,8.027,1.611
		c2.499,1.075,4.688,2.549,6.562,4.424s3.349,4.072,4.424,6.592c1.074,2.52,1.611,5.206,1.611,8.057v6.797
		c0,2.852-0.537,5.537-1.611,8.057c-1.075,2.52-2.549,4.717-4.424,6.592s-4.063,3.35-6.562,4.424
		c-2.5,1.074-5.177,1.611-8.027,1.611l22.793,35.859H738.047z M737.051,84.548c0-1.875-0.352-3.623-1.055-5.244
		c-0.703-1.621-1.661-3.047-2.871-4.277c-1.211-1.23-2.628-2.197-4.248-2.9c-1.621-0.703-3.369-1.055-5.244-1.055h-18.75v33.75
		h18.75c1.875,0,3.623-0.352,5.244-1.055c1.62-0.703,3.037-1.67,4.248-2.9c1.21-1.23,2.168-2.656,2.871-4.277
		c0.703-1.621,1.055-3.369,1.055-5.244V84.548z"/>
	<path fill="#22629A" d="M800.684,147.888l-22.793-35.859H767.52v35.859h-7.559V63.865h26.66c2.851,0,5.527,0.538,8.027,1.611
		c2.499,1.075,4.688,2.549,6.562,4.424s3.349,4.072,4.424,6.592c1.074,2.52,1.611,5.206,1.611,8.057v6.797
		c0,2.852-0.537,5.537-1.611,8.057c-1.075,2.52-2.549,4.717-4.424,6.592s-4.063,3.35-6.562,4.424
		c-2.5,1.074-5.177,1.611-8.027,1.611l22.793,35.859H800.684z M799.688,84.548c0-1.875-0.352-3.623-1.055-5.244
		c-0.703-1.621-1.661-3.047-2.871-4.277c-1.211-1.23-2.628-2.197-4.248-2.9c-1.621-0.703-3.369-1.055-5.244-1.055h-18.75v33.75
		h18.75c1.875,0,3.623-0.352,5.244-1.055c1.62-0.703,3.037-1.67,4.248-2.9c1.21-1.23,2.168-2.656,2.871-4.277
		c0.703-1.621,1.055-3.369,1.055-5.244V84.548z"/>
	<path fill="#22629A" d="M868.271,136.462c-1.075,2.5-2.549,4.688-4.424,6.562s-4.063,3.35-6.562,4.424
		c-2.5,1.074-5.177,1.611-8.027,1.611h-5.977c-2.852,0-5.537-0.537-8.057-1.611s-4.717-2.549-6.592-4.424s-3.35-4.062-4.424-6.562
		c-1.075-2.499-1.611-5.176-1.611-8.027V83.318c0-2.851,0.536-5.527,1.611-8.027c1.074-2.5,2.549-4.688,4.424-6.562
		s4.072-3.349,6.592-4.424c2.52-1.074,5.205-1.611,8.057-1.611h5.977c2.851,0,5.527,0.538,8.027,1.611
		c2.499,1.075,4.688,2.549,6.562,4.424s3.349,4.063,4.424,6.562c1.074,2.5,1.611,5.176,1.611,8.027v45.117
		C869.883,131.287,869.346,133.963,868.271,136.462z M862.324,83.318c0-1.875-0.352-3.623-1.055-5.244
		c-0.703-1.621-1.661-3.037-2.871-4.248c-1.211-1.21-2.628-2.168-4.248-2.871c-1.621-0.703-3.369-1.055-5.244-1.055h-5.273
		c-1.875,0-3.624,0.352-5.244,1.055c-1.621,0.703-3.047,1.661-4.277,2.871c-1.23,1.211-2.197,2.627-2.9,4.248
		c-0.703,1.622-1.055,3.369-1.055,5.244v45.117c0,1.875,0.352,3.624,1.055,5.244c0.703,1.621,1.67,3.047,2.9,4.277
		s2.656,2.197,4.277,2.9c1.62,0.703,3.369,1.055,5.244,1.055h5.273c1.875,0,3.623-0.352,5.244-1.055
		c1.62-0.703,3.037-1.67,4.248-2.9c1.21-1.23,2.168-2.656,2.871-4.277c0.703-1.62,1.055-3.369,1.055-5.244V83.318z"/>
	<path fill="#22629A" d="M927.422,147.888l-22.793-35.859h-10.371v35.859h-7.559V63.865h26.66c2.851,0,5.527,0.538,8.027,1.611
		c2.499,1.075,4.688,2.549,6.562,4.424s3.349,4.072,4.424,6.592c1.074,2.52,1.611,5.206,1.611,8.057v6.797
		c0,2.852-0.537,5.537-1.611,8.057c-1.075,2.52-2.549,4.717-4.424,6.592s-4.063,3.35-6.562,4.424
		c-2.5,1.074-5.177,1.611-8.027,1.611l22.793,35.859H927.422z M926.426,84.548c0-1.875-0.352-3.623-1.055-5.244
		c-0.703-1.621-1.661-3.047-2.871-4.277c-1.211-1.23-2.628-2.197-4.248-2.9c-1.621-0.703-3.369-1.055-5.244-1.055h-18.75v33.75
		h18.75c1.875,0,3.623-0.352,5.244-1.055c1.62-0.703,3.037-1.67,4.248-2.9c1.21-1.23,2.168-2.656,2.871-4.277
		c0.703-1.621,1.055-3.369,1.055-5.244V84.548z"/>
</g>
</svg>

